<mxfile host="app.diagrams.net" modified="2022-08-17T15:42:03.476Z" agent="5.0 (Windows NT 10.0; Win64; x64) AppleWebKit/537.36 (KHTML, like Gecko) Chrome/104.0.0.0 Safari/537.36" etag="Cn-lksKnA2UPqc1Srfb2" version="20.2.4" type="github">
  <diagram id="zAPG3s6eNBlKXScx0uPv" name="Page-1">
    <mxGraphModel dx="2272" dy="762" grid="1" gridSize="10" guides="1" tooltips="1" connect="1" arrows="1" fold="1" page="1" pageScale="1" pageWidth="850" pageHeight="1100" math="0" shadow="0">
      <root>
        <mxCell id="0" />
        <mxCell id="1" parent="0" />
        <mxCell id="6c2BMC_qpxblbNM1LoXK-9" style="edgeStyle=orthogonalEdgeStyle;rounded=0;orthogonalLoop=1;jettySize=auto;html=1;exitX=0.75;exitY=1;exitDx=0;exitDy=0;entryX=0.75;entryY=0;entryDx=0;entryDy=0;" parent="1" source="6c2BMC_qpxblbNM1LoXK-1" target="6c2BMC_qpxblbNM1LoXK-6" edge="1">
          <mxGeometry relative="1" as="geometry" />
        </mxCell>
        <mxCell id="6c2BMC_qpxblbNM1LoXK-1" value="UI Web Page" style="rounded=1;whiteSpace=wrap;html=1;" parent="1" vertex="1">
          <mxGeometry x="490" y="40" width="80" height="20" as="geometry" />
        </mxCell>
        <mxCell id="6c2BMC_qpxblbNM1LoXK-10" style="edgeStyle=orthogonalEdgeStyle;rounded=0;orthogonalLoop=1;jettySize=auto;html=1;exitX=0.75;exitY=1;exitDx=0;exitDy=0;entryX=0.75;entryY=0;entryDx=0;entryDy=0;" parent="1" source="6c2BMC_qpxblbNM1LoXK-6" target="6c2BMC_qpxblbNM1LoXK-7" edge="1">
          <mxGeometry relative="1" as="geometry" />
        </mxCell>
        <mxCell id="6c2BMC_qpxblbNM1LoXK-18" style="edgeStyle=orthogonalEdgeStyle;rounded=0;orthogonalLoop=1;jettySize=auto;html=1;exitX=0.25;exitY=0;exitDx=0;exitDy=0;entryX=0.25;entryY=1;entryDx=0;entryDy=0;" parent="1" source="6c2BMC_qpxblbNM1LoXK-6" target="6c2BMC_qpxblbNM1LoXK-1" edge="1">
          <mxGeometry relative="1" as="geometry" />
        </mxCell>
        <mxCell id="6c2BMC_qpxblbNM1LoXK-6" value="Controller" style="rounded=1;whiteSpace=wrap;html=1;" parent="1" vertex="1">
          <mxGeometry x="490" y="90" width="80" height="20" as="geometry" />
        </mxCell>
        <mxCell id="6c2BMC_qpxblbNM1LoXK-15" style="edgeStyle=orthogonalEdgeStyle;rounded=0;orthogonalLoop=1;jettySize=auto;html=1;exitX=0;exitY=0.25;exitDx=0;exitDy=0;entryX=1;entryY=0.25;entryDx=0;entryDy=0;" parent="1" source="6c2BMC_qpxblbNM1LoXK-7" target="6c2BMC_qpxblbNM1LoXK-13" edge="1">
          <mxGeometry relative="1" as="geometry" />
        </mxCell>
        <mxCell id="6c2BMC_qpxblbNM1LoXK-17" style="edgeStyle=orthogonalEdgeStyle;rounded=0;orthogonalLoop=1;jettySize=auto;html=1;exitX=0.25;exitY=0;exitDx=0;exitDy=0;entryX=0.25;entryY=1;entryDx=0;entryDy=0;" parent="1" source="6c2BMC_qpxblbNM1LoXK-7" target="6c2BMC_qpxblbNM1LoXK-6" edge="1">
          <mxGeometry relative="1" as="geometry" />
        </mxCell>
        <mxCell id="6c2BMC_qpxblbNM1LoXK-51" style="edgeStyle=orthogonalEdgeStyle;rounded=0;orthogonalLoop=1;jettySize=auto;html=1;exitX=1;exitY=1;exitDx=0;exitDy=0;entryX=0.873;entryY=0.1;entryDx=0;entryDy=0;entryPerimeter=0;fontSize=9;" parent="1" source="6c2BMC_qpxblbNM1LoXK-7" target="6c2BMC_qpxblbNM1LoXK-21" edge="1">
          <mxGeometry relative="1" as="geometry" />
        </mxCell>
        <mxCell id="6c2BMC_qpxblbNM1LoXK-7" value="Service" style="rounded=1;whiteSpace=wrap;html=1;" parent="1" vertex="1">
          <mxGeometry x="490" y="140" width="80" height="20" as="geometry" />
        </mxCell>
        <mxCell id="6c2BMC_qpxblbNM1LoXK-82" style="edgeStyle=orthogonalEdgeStyle;rounded=0;orthogonalLoop=1;jettySize=auto;html=1;exitX=0.25;exitY=0;exitDx=0;exitDy=0;entryX=0.25;entryY=1;entryDx=0;entryDy=0;fontSize=11;" parent="1" source="6c2BMC_qpxblbNM1LoXK-11" target="6c2BMC_qpxblbNM1LoXK-22" edge="1">
          <mxGeometry relative="1" as="geometry" />
        </mxCell>
        <mxCell id="6c2BMC_qpxblbNM1LoXK-11" value="Database" style="rounded=1;whiteSpace=wrap;html=1;" parent="1" vertex="1">
          <mxGeometry x="537.5" y="320" width="95" height="30" as="geometry" />
        </mxCell>
        <mxCell id="6c2BMC_qpxblbNM1LoXK-14" style="edgeStyle=orthogonalEdgeStyle;rounded=0;orthogonalLoop=1;jettySize=auto;html=1;exitX=1;exitY=0.75;exitDx=0;exitDy=0;entryX=0;entryY=0.75;entryDx=0;entryDy=0;" parent="1" source="6c2BMC_qpxblbNM1LoXK-13" target="6c2BMC_qpxblbNM1LoXK-7" edge="1">
          <mxGeometry relative="1" as="geometry" />
        </mxCell>
        <mxCell id="6c2BMC_qpxblbNM1LoXK-19" style="edgeStyle=orthogonalEdgeStyle;rounded=0;orthogonalLoop=1;jettySize=auto;html=1;exitX=0.75;exitY=0;exitDx=0;exitDy=0;entryX=0;entryY=0.5;entryDx=0;entryDy=0;" parent="1" source="6c2BMC_qpxblbNM1LoXK-13" target="6c2BMC_qpxblbNM1LoXK-1" edge="1">
          <mxGeometry relative="1" as="geometry" />
        </mxCell>
        <mxCell id="6c2BMC_qpxblbNM1LoXK-13" value="Integration (Tableau, Primavera)" style="rounded=1;whiteSpace=wrap;html=1;" parent="1" vertex="1">
          <mxGeometry x="260" y="130" width="120" height="30" as="geometry" />
        </mxCell>
        <mxCell id="6c2BMC_qpxblbNM1LoXK-53" style="edgeStyle=orthogonalEdgeStyle;rounded=0;orthogonalLoop=1;jettySize=auto;html=1;exitX=0.25;exitY=0;exitDx=0;exitDy=0;entryX=0.5;entryY=1;entryDx=0;entryDy=0;fontSize=9;" parent="1" source="6c2BMC_qpxblbNM1LoXK-21" target="6c2BMC_qpxblbNM1LoXK-7" edge="1">
          <mxGeometry relative="1" as="geometry" />
        </mxCell>
        <mxCell id="6c2BMC_qpxblbNM1LoXK-59" style="edgeStyle=orthogonalEdgeStyle;rounded=0;orthogonalLoop=1;jettySize=auto;html=1;exitX=1;exitY=1;exitDx=0;exitDy=0;entryX=0.923;entryY=0.05;entryDx=0;entryDy=0;entryPerimeter=0;fontSize=11;" parent="1" source="6c2BMC_qpxblbNM1LoXK-21" target="6c2BMC_qpxblbNM1LoXK-22" edge="1">
          <mxGeometry relative="1" as="geometry" />
        </mxCell>
        <mxCell id="6c2BMC_qpxblbNM1LoXK-21" value="Data Access &quot;API&quot;" style="rounded=1;whiteSpace=wrap;html=1;" parent="1" vertex="1">
          <mxGeometry x="530" y="220" width="110" height="20" as="geometry" />
        </mxCell>
        <mxCell id="6c2BMC_qpxblbNM1LoXK-60" style="edgeStyle=orthogonalEdgeStyle;rounded=0;orthogonalLoop=1;jettySize=auto;html=1;exitX=0.25;exitY=0;exitDx=0;exitDy=0;entryX=0.182;entryY=1.05;entryDx=0;entryDy=0;entryPerimeter=0;fontSize=11;" parent="1" source="6c2BMC_qpxblbNM1LoXK-22" target="6c2BMC_qpxblbNM1LoXK-21" edge="1">
          <mxGeometry relative="1" as="geometry" />
        </mxCell>
        <mxCell id="6c2BMC_qpxblbNM1LoXK-62" style="edgeStyle=orthogonalEdgeStyle;rounded=0;orthogonalLoop=1;jettySize=auto;html=1;exitX=0.75;exitY=1;exitDx=0;exitDy=0;entryX=0.875;entryY=0;entryDx=0;entryDy=0;entryPerimeter=0;fontSize=11;" parent="1" source="6c2BMC_qpxblbNM1LoXK-22" target="6c2BMC_qpxblbNM1LoXK-11" edge="1">
          <mxGeometry relative="1" as="geometry" />
        </mxCell>
        <mxCell id="6c2BMC_qpxblbNM1LoXK-22" value="Change Control System" style="rounded=1;whiteSpace=wrap;html=1;" parent="1" vertex="1">
          <mxGeometry x="520" y="270" width="130" height="20" as="geometry" />
        </mxCell>
        <mxCell id="6c2BMC_qpxblbNM1LoXK-27" style="edgeStyle=orthogonalEdgeStyle;rounded=0;orthogonalLoop=1;jettySize=auto;html=1;exitX=0.75;exitY=1;exitDx=0;exitDy=0;entryX=0.75;entryY=0;entryDx=0;entryDy=0;" parent="1" source="6c2BMC_qpxblbNM1LoXK-28" target="6c2BMC_qpxblbNM1LoXK-31" edge="1">
          <mxGeometry relative="1" as="geometry" />
        </mxCell>
        <mxCell id="6c2BMC_qpxblbNM1LoXK-28" value="UI Web Page" style="rounded=1;whiteSpace=wrap;html=1;" parent="1" vertex="1">
          <mxGeometry x="-520" y="30" width="80" height="20" as="geometry" />
        </mxCell>
        <mxCell id="6c2BMC_qpxblbNM1LoXK-29" style="edgeStyle=orthogonalEdgeStyle;rounded=0;orthogonalLoop=1;jettySize=auto;html=1;exitX=0.75;exitY=1;exitDx=0;exitDy=0;entryX=0.75;entryY=0;entryDx=0;entryDy=0;" parent="1" source="6c2BMC_qpxblbNM1LoXK-31" target="6c2BMC_qpxblbNM1LoXK-35" edge="1">
          <mxGeometry relative="1" as="geometry" />
        </mxCell>
        <mxCell id="6c2BMC_qpxblbNM1LoXK-30" style="edgeStyle=orthogonalEdgeStyle;rounded=0;orthogonalLoop=1;jettySize=auto;html=1;exitX=0.25;exitY=0;exitDx=0;exitDy=0;entryX=0.25;entryY=1;entryDx=0;entryDy=0;" parent="1" source="6c2BMC_qpxblbNM1LoXK-31" target="6c2BMC_qpxblbNM1LoXK-28" edge="1">
          <mxGeometry relative="1" as="geometry" />
        </mxCell>
        <mxCell id="6c2BMC_qpxblbNM1LoXK-31" value="Controller" style="rounded=1;whiteSpace=wrap;html=1;" parent="1" vertex="1">
          <mxGeometry x="-520" y="80" width="80" height="20" as="geometry" />
        </mxCell>
        <mxCell id="6c2BMC_qpxblbNM1LoXK-32" style="edgeStyle=orthogonalEdgeStyle;rounded=0;orthogonalLoop=1;jettySize=auto;html=1;exitX=0.75;exitY=1;exitDx=0;exitDy=0;entryX=0.75;entryY=0;entryDx=0;entryDy=0;" parent="1" source="6c2BMC_qpxblbNM1LoXK-35" target="6c2BMC_qpxblbNM1LoXK-37" edge="1">
          <mxGeometry relative="1" as="geometry" />
        </mxCell>
        <mxCell id="6c2BMC_qpxblbNM1LoXK-33" style="edgeStyle=orthogonalEdgeStyle;rounded=0;orthogonalLoop=1;jettySize=auto;html=1;exitX=0;exitY=0.25;exitDx=0;exitDy=0;entryX=1;entryY=0.25;entryDx=0;entryDy=0;" parent="1" source="6c2BMC_qpxblbNM1LoXK-35" target="6c2BMC_qpxblbNM1LoXK-73" edge="1">
          <mxGeometry relative="1" as="geometry">
            <mxPoint x="-590" y="135" as="targetPoint" />
          </mxGeometry>
        </mxCell>
        <mxCell id="6c2BMC_qpxblbNM1LoXK-34" style="edgeStyle=orthogonalEdgeStyle;rounded=0;orthogonalLoop=1;jettySize=auto;html=1;exitX=0.25;exitY=0;exitDx=0;exitDy=0;entryX=0.25;entryY=1;entryDx=0;entryDy=0;" parent="1" source="6c2BMC_qpxblbNM1LoXK-35" target="6c2BMC_qpxblbNM1LoXK-31" edge="1">
          <mxGeometry relative="1" as="geometry" />
        </mxCell>
        <mxCell id="6c2BMC_qpxblbNM1LoXK-35" value="Service" style="rounded=1;whiteSpace=wrap;html=1;" parent="1" vertex="1">
          <mxGeometry x="-520" y="130" width="80" height="20" as="geometry" />
        </mxCell>
        <mxCell id="6c2BMC_qpxblbNM1LoXK-36" style="edgeStyle=orthogonalEdgeStyle;rounded=0;orthogonalLoop=1;jettySize=auto;html=1;exitX=0.25;exitY=0;exitDx=0;exitDy=0;entryX=0.25;entryY=1;entryDx=0;entryDy=0;" parent="1" source="6c2BMC_qpxblbNM1LoXK-37" target="6c2BMC_qpxblbNM1LoXK-35" edge="1">
          <mxGeometry relative="1" as="geometry" />
        </mxCell>
        <mxCell id="6c2BMC_qpxblbNM1LoXK-37" value="Database" style="rounded=1;whiteSpace=wrap;html=1;" parent="1" vertex="1">
          <mxGeometry x="-520" y="180" width="80" height="30" as="geometry" />
        </mxCell>
        <mxCell id="6c2BMC_qpxblbNM1LoXK-38" style="edgeStyle=orthogonalEdgeStyle;rounded=0;orthogonalLoop=1;jettySize=auto;html=1;exitX=1;exitY=0.75;exitDx=0;exitDy=0;entryX=0;entryY=0.75;entryDx=0;entryDy=0;" parent="1" source="6c2BMC_qpxblbNM1LoXK-73" target="6c2BMC_qpxblbNM1LoXK-35" edge="1">
          <mxGeometry relative="1" as="geometry">
            <mxPoint x="-590" y="145" as="sourcePoint" />
          </mxGeometry>
        </mxCell>
        <mxCell id="6c2BMC_qpxblbNM1LoXK-39" style="edgeStyle=orthogonalEdgeStyle;rounded=0;orthogonalLoop=1;jettySize=auto;html=1;exitX=0.5;exitY=0;exitDx=0;exitDy=0;entryX=0;entryY=0.5;entryDx=0;entryDy=0;" parent="1" source="6c2BMC_qpxblbNM1LoXK-73" target="6c2BMC_qpxblbNM1LoXK-28" edge="1">
          <mxGeometry relative="1" as="geometry">
            <mxPoint x="-610" y="130" as="sourcePoint" />
          </mxGeometry>
        </mxCell>
        <mxCell id="6c2BMC_qpxblbNM1LoXK-45" value="Integrated in API?" style="ellipse;whiteSpace=wrap;html=1;fontSize=9;" parent="1" vertex="1">
          <mxGeometry x="557" y="240" width="60" height="30" as="geometry" />
        </mxCell>
        <mxCell id="6c2BMC_qpxblbNM1LoXK-57" value="" style="endArrow=none;dashed=1;html=1;dashPattern=1 3;strokeWidth=2;rounded=0;fontSize=9;" parent="1" edge="1">
          <mxGeometry width="50" height="50" relative="1" as="geometry">
            <mxPoint x="510" y="190" as="sourcePoint" />
            <mxPoint x="680" y="190" as="targetPoint" />
          </mxGeometry>
        </mxCell>
        <mxCell id="6c2BMC_qpxblbNM1LoXK-58" value="Interfaces/Datasources" style="rounded=1;whiteSpace=wrap;html=1;fontSize=11;fontStyle=1" parent="1" vertex="1">
          <mxGeometry x="380" y="180" width="135" height="20" as="geometry" />
        </mxCell>
        <mxCell id="6c2BMC_qpxblbNM1LoXK-66" value="" style="swimlane;startSize=0;fontSize=11;fillColor=#dae8fc;strokeColor=#6c8ebf;strokeWidth=2;" parent="1" vertex="1">
          <mxGeometry x="513" y="210" width="143" height="90" as="geometry" />
        </mxCell>
        <mxCell id="6c2BMC_qpxblbNM1LoXK-69" value="" style="swimlane;fontStyle=0;childLayout=stackLayout;horizontal=1;startSize=20;horizontalStack=0;resizeParent=1;resizeParentMax=0;resizeLast=0;collapsible=1;marginBottom=0;fontSize=11;strokeWidth=2;" parent="1" vertex="1">
          <mxGeometry x="270" y="230" width="210" height="210" as="geometry">
            <mxRectangle x="590" y="170" width="60" height="30" as="alternateBounds" />
          </mxGeometry>
        </mxCell>
        <mxCell id="6c2BMC_qpxblbNM1LoXK-70" value="Manage change here instead of having&#xa; to worry about it in Service" style="text;strokeColor=#666666;fillColor=#f5f5f5;align=left;verticalAlign=middle;spacingLeft=4;spacingRight=4;overflow=hidden;points=[[0,0.5],[1,0.5]];portConstraint=eastwest;rotatable=0;fontSize=11;fontColor=#333333;" parent="6c2BMC_qpxblbNM1LoXK-69" vertex="1">
          <mxGeometry y="20" width="210" height="40" as="geometry" />
        </mxCell>
        <mxCell id="6c2BMC_qpxblbNM1LoXK-79" value="Build in a Refresh method in all the &#xa;interfaces to Refresh. Change Control or Service would call Refresh on affected&#xa;Interfaces. Interface queries the DA API&#xa; within Refresh Method  to update affected indexes" style="text;strokeColor=#666666;fillColor=#f5f5f5;align=left;verticalAlign=middle;spacingLeft=4;spacingRight=4;overflow=hidden;points=[[0,0.5],[1,0.5]];portConstraint=eastwest;rotatable=0;fontSize=11;fontColor=#333333;whiteSpace=wrap;" parent="6c2BMC_qpxblbNM1LoXK-69" vertex="1">
          <mxGeometry y="60" width="210" height="80" as="geometry" />
        </mxCell>
        <mxCell id="6c2BMC_qpxblbNM1LoXK-77" value="Data Access &quot;API&quot; would have to track what indexes are currently loaded and where. Call refresh(indexes) on affected interfaces." style="text;align=left;verticalAlign=middle;spacingLeft=4;spacingRight=4;overflow=hidden;points=[[0,0.5],[1,0.5]];portConstraint=eastwest;rotatable=0;fontSize=11;whiteSpace=wrap;fillColor=#f5f5f5;fontColor=#333333;strokeColor=#666666;" parent="6c2BMC_qpxblbNM1LoXK-69" vertex="1">
          <mxGeometry y="140" width="210" height="70" as="geometry" />
        </mxCell>
        <mxCell id="6c2BMC_qpxblbNM1LoXK-73" value="Integration (Tableau, Primavera)" style="rounded=1;whiteSpace=wrap;html=1;" parent="1" vertex="1">
          <mxGeometry x="-720" y="125" width="120" height="30" as="geometry" />
        </mxCell>
        <mxCell id="6c2BMC_qpxblbNM1LoXK-80" style="edgeStyle=orthogonalEdgeStyle;rounded=0;orthogonalLoop=1;jettySize=auto;html=1;exitX=1;exitY=0.5;exitDx=0;exitDy=0;fontSize=11;" parent="1" source="6c2BMC_qpxblbNM1LoXK-70" target="6c2BMC_qpxblbNM1LoXK-66" edge="1">
          <mxGeometry relative="1" as="geometry" />
        </mxCell>
        <mxCell id="6c2BMC_qpxblbNM1LoXK-94" value="" style="edgeStyle=orthogonalEdgeStyle;rounded=0;orthogonalLoop=1;jettySize=auto;html=1;fontSize=11;" parent="1" source="6c2BMC_qpxblbNM1LoXK-89" target="6c2BMC_qpxblbNM1LoXK-93" edge="1">
          <mxGeometry relative="1" as="geometry" />
        </mxCell>
        <mxCell id="6c2BMC_qpxblbNM1LoXK-89" value="These would be originally derived from the existing source code in the Dash360 solution." style="rounded=1;whiteSpace=wrap;html=1;fontSize=11;strokeWidth=2;" parent="1" vertex="1">
          <mxGeometry x="680" y="160" width="140" height="60" as="geometry" />
        </mxCell>
        <mxCell id="6c2BMC_qpxblbNM1LoXK-92" value="" style="shape=flexArrow;endArrow=classic;html=1;rounded=0;fontSize=11;entryX=1;entryY=1;entryDx=0;entryDy=0;exitX=0.5;exitY=0;exitDx=0;exitDy=0;width=4.166666666666667;endSize=4.266666666666667;endWidth=8.194444444444445;" parent="1" source="6c2BMC_qpxblbNM1LoXK-58" target="6c2BMC_qpxblbNM1LoXK-13" edge="1">
          <mxGeometry width="50" height="50" relative="1" as="geometry">
            <mxPoint x="400" y="290" as="sourcePoint" />
            <mxPoint x="450" y="240" as="targetPoint" />
          </mxGeometry>
        </mxCell>
        <mxCell id="6c2BMC_qpxblbNM1LoXK-93" value="The lowest common denominator of project requirements. [ WBS, Work Package, Budget, Actuals, Schedule] . + Methods required to support dynamic notebook fields + Methods to support common dynamic calculations (EV Stuff) + Methods to support refresh" style="rounded=1;whiteSpace=wrap;html=1;fontSize=11;strokeWidth=2;" parent="1" vertex="1">
          <mxGeometry x="665" y="240" width="170" height="110" as="geometry" />
        </mxCell>
        <mxCell id="6c2BMC_qpxblbNM1LoXK-108" value="Cost Summary Datasource" style="shape=table;startSize=30;container=1;collapsible=1;childLayout=tableLayout;fixedRows=1;rowLines=0;fontStyle=1;align=center;resizeLast=1;fontSize=11;strokeWidth=2;" parent="1" vertex="1">
          <mxGeometry x="550" y="390" width="285" height="170" as="geometry" />
        </mxCell>
        <mxCell id="6c2BMC_qpxblbNM1LoXK-109" value="" style="shape=tableRow;horizontal=0;startSize=0;swimlaneHead=0;swimlaneBody=0;fillColor=none;collapsible=0;dropTarget=0;points=[[0,0.5],[1,0.5]];portConstraint=eastwest;top=0;left=0;right=0;bottom=1;fontSize=11;strokeWidth=2;" parent="6c2BMC_qpxblbNM1LoXK-108" vertex="1">
          <mxGeometry y="30" width="285" height="30" as="geometry" />
        </mxCell>
        <mxCell id="6c2BMC_qpxblbNM1LoXK-110" value="PK" style="shape=partialRectangle;connectable=0;fillColor=none;top=0;left=0;bottom=0;right=0;fontStyle=1;overflow=hidden;fontSize=11;strokeWidth=2;" parent="6c2BMC_qpxblbNM1LoXK-109" vertex="1">
          <mxGeometry width="80" height="30" as="geometry">
            <mxRectangle width="80" height="30" as="alternateBounds" />
          </mxGeometry>
        </mxCell>
        <mxCell id="6c2BMC_qpxblbNM1LoXK-111" value="DatasourceID" style="shape=partialRectangle;connectable=0;fillColor=none;top=0;left=0;bottom=0;right=0;align=left;spacingLeft=6;fontStyle=5;overflow=hidden;fontSize=11;strokeWidth=2;" parent="6c2BMC_qpxblbNM1LoXK-109" vertex="1">
          <mxGeometry x="80" width="205" height="30" as="geometry">
            <mxRectangle width="205" height="30" as="alternateBounds" />
          </mxGeometry>
        </mxCell>
        <mxCell id="6c2BMC_qpxblbNM1LoXK-112" value="" style="shape=tableRow;horizontal=0;startSize=0;swimlaneHead=0;swimlaneBody=0;fillColor=none;collapsible=0;dropTarget=0;points=[[0,0.5],[1,0.5]];portConstraint=eastwest;top=0;left=0;right=0;bottom=0;fontSize=11;strokeWidth=2;" parent="6c2BMC_qpxblbNM1LoXK-108" vertex="1">
          <mxGeometry y="60" width="285" height="30" as="geometry" />
        </mxCell>
        <mxCell id="6c2BMC_qpxblbNM1LoXK-113" value="str" style="shape=partialRectangle;connectable=0;fillColor=none;top=0;left=0;bottom=0;right=0;editable=1;overflow=hidden;fontSize=11;strokeWidth=2;" parent="6c2BMC_qpxblbNM1LoXK-112" vertex="1">
          <mxGeometry width="80" height="30" as="geometry">
            <mxRectangle width="80" height="30" as="alternateBounds" />
          </mxGeometry>
        </mxCell>
        <mxCell id="6c2BMC_qpxblbNM1LoXK-114" value="ProjectID" style="shape=partialRectangle;connectable=0;fillColor=none;top=0;left=0;bottom=0;right=0;align=left;spacingLeft=6;overflow=hidden;fontSize=11;strokeWidth=2;" parent="6c2BMC_qpxblbNM1LoXK-112" vertex="1">
          <mxGeometry x="80" width="205" height="30" as="geometry">
            <mxRectangle width="205" height="30" as="alternateBounds" />
          </mxGeometry>
        </mxCell>
        <mxCell id="6c2BMC_qpxblbNM1LoXK-124" value="" style="shape=tableRow;horizontal=0;startSize=0;swimlaneHead=0;swimlaneBody=0;fillColor=none;collapsible=0;dropTarget=0;points=[[0,0.5],[1,0.5]];portConstraint=eastwest;top=0;left=0;right=0;bottom=0;fontSize=11;strokeWidth=2;" parent="6c2BMC_qpxblbNM1LoXK-108" vertex="1">
          <mxGeometry y="90" width="285" height="30" as="geometry" />
        </mxCell>
        <mxCell id="6c2BMC_qpxblbNM1LoXK-125" value="EFDB" style="shape=partialRectangle;connectable=0;fillColor=none;top=0;left=0;bottom=0;right=0;editable=1;overflow=hidden;fontSize=11;strokeWidth=2;" parent="6c2BMC_qpxblbNM1LoXK-124" vertex="1">
          <mxGeometry width="80" height="30" as="geometry">
            <mxRectangle width="80" height="30" as="alternateBounds" />
          </mxGeometry>
        </mxCell>
        <mxCell id="6c2BMC_qpxblbNM1LoXK-126" value="DatabaseConnection" style="shape=partialRectangle;connectable=0;fillColor=none;top=0;left=0;bottom=0;right=0;align=left;spacingLeft=6;overflow=hidden;fontSize=11;strokeWidth=2;" parent="6c2BMC_qpxblbNM1LoXK-124" vertex="1">
          <mxGeometry x="80" width="205" height="30" as="geometry">
            <mxRectangle width="205" height="30" as="alternateBounds" />
          </mxGeometry>
        </mxCell>
        <mxCell id="6c2BMC_qpxblbNM1LoXK-118" value="" style="shape=tableRow;horizontal=0;startSize=0;swimlaneHead=0;swimlaneBody=0;fillColor=none;collapsible=0;dropTarget=0;points=[[0,0.5],[1,0.5]];portConstraint=eastwest;top=0;left=0;right=0;bottom=0;fontSize=11;strokeWidth=2;" parent="6c2BMC_qpxblbNM1LoXK-108" vertex="1">
          <mxGeometry y="120" width="285" height="30" as="geometry" />
        </mxCell>
        <mxCell id="6c2BMC_qpxblbNM1LoXK-119" value="WBSCodeFile" style="shape=partialRectangle;connectable=0;fillColor=none;top=0;left=0;bottom=0;right=0;editable=1;overflow=hidden;fontSize=11;strokeWidth=2;whiteSpace=wrap;" parent="6c2BMC_qpxblbNM1LoXK-118" vertex="1">
          <mxGeometry width="80" height="30" as="geometry">
            <mxRectangle width="80" height="30" as="alternateBounds" />
          </mxGeometry>
        </mxCell>
        <mxCell id="6c2BMC_qpxblbNM1LoXK-120" value="GetWBS(ProjectName)" style="shape=partialRectangle;connectable=0;fillColor=none;top=0;left=0;bottom=0;right=0;align=left;spacingLeft=6;overflow=hidden;fontSize=11;strokeWidth=2;" parent="6c2BMC_qpxblbNM1LoXK-118" vertex="1">
          <mxGeometry x="80" width="205" height="30" as="geometry">
            <mxRectangle width="205" height="30" as="alternateBounds" />
          </mxGeometry>
        </mxCell>
        <mxCell id="6c2BMC_qpxblbNM1LoXK-127" value="Entity" style="swimlane;childLayout=stackLayout;horizontal=1;startSize=30;horizontalStack=0;rounded=1;fontSize=14;fontStyle=0;strokeWidth=2;resizeParent=0;resizeLast=1;shadow=0;dashed=0;align=center;" parent="1" vertex="1">
          <mxGeometry x="310" y="520" width="160" height="120" as="geometry" />
        </mxCell>
        <mxCell id="6c2BMC_qpxblbNM1LoXK-128" value="+Attribute1&#xa;+Attribute2&#xa;+Attribute3" style="align=left;strokeColor=none;fillColor=none;spacingLeft=4;fontSize=12;verticalAlign=top;resizable=0;rotatable=0;part=1;" parent="6c2BMC_qpxblbNM1LoXK-127" vertex="1">
          <mxGeometry y="30" width="160" height="90" as="geometry" />
        </mxCell>
        <mxCell id="16i-nf_rvmOnG4rMdPLO-1" value="Cache" style="rounded=1;whiteSpace=wrap;html=1;" vertex="1" parent="1">
          <mxGeometry x="-420" y="50" width="80" height="20" as="geometry" />
        </mxCell>
      </root>
    </mxGraphModel>
  </diagram>
</mxfile>
